<svg width="357" height="3" viewBox="0 0 357 3" fill="none" xmlns="http://www.w3.org/2000/svg">
<path d="M1.65341 2.06818C1.44318 2.06818 1.26278 1.9929 1.11222 1.84233C0.961648 1.69176 0.886364 1.51136 0.886364 1.30114C0.886364 1.09091 0.961648 0.910511 1.11222 0.759943C1.26278 0.609375 1.44318 0.534091 1.65341 0.534091C1.86364 0.534091 2.04403 0.609375 2.1946 0.759943C2.34517 0.910511 2.42045 1.09091 2.42045 1.30114C2.42045 1.44034 2.38494 1.56818 2.31392 1.68466C2.24574 1.80114 2.15341 1.89489 2.03693 1.96591C1.9233 2.03409 1.79545 2.06818 1.65341 2.06818ZM4.9581 2.06818C4.74787 2.06818 4.56747 1.9929 4.4169 1.84233C4.26634 1.69176 4.19105 1.51136 4.19105 1.30114C4.19105 1.09091 4.26634 0.910511 4.4169 0.759943C4.56747 0.609375 4.74787 0.534091 4.9581 0.534091C5.16832 0.534091 5.34872 0.609375 5.49929 0.759943C5.64986 0.910511 5.72514 1.09091 5.72514 1.30114C5.72514 1.44034 5.68963 1.56818 5.61861 1.68466C5.55043 1.80114 5.4581 1.89489 5.34162 1.96591C5.22798 2.03409 5.10014 2.06818 4.9581 2.06818ZM8.26278 2.06818C8.05256 2.06818 7.87216 1.9929 7.72159 1.84233C7.57102 1.69176 7.49574 1.51136 7.49574 1.30114C7.49574 1.09091 7.57102 0.910511 7.72159 0.759943C7.87216 0.609375 8.05256 0.534091 8.26278 0.534091C8.47301 0.534091 8.65341 0.609375 8.80398 0.759943C8.95455 0.910511 9.02983 1.09091 9.02983 1.30114C9.02983 1.44034 8.99432 1.56818 8.9233 1.68466C8.85511 1.80114 8.76278 1.89489 8.64631 1.96591C8.53267 2.03409 8.40483 2.06818 8.26278 2.06818ZM11.5675 2.06818C11.3572 2.06818 11.1768 1.9929 11.0263 1.84233C10.8757 1.69176 10.8004 1.51136 10.8004 1.30114C10.8004 1.09091 10.8757 0.910511 11.0263 0.759943C11.1768 0.609375 11.3572 0.534091 11.5675 0.534091C11.7777 0.534091 11.9581 0.609375 12.1087 0.759943C12.2592 0.910511 12.3345 1.09091 12.3345 1.30114C12.3345 1.44034 12.299 1.56818 12.228 1.68466C12.1598 1.80114 12.0675 1.89489 11.951 1.96591C11.8374 2.03409 11.7095 2.06818 11.5675 2.06818ZM14.8722 2.06818C14.6619 2.06818 14.4815 1.9929 14.331 1.84233C14.1804 1.69176 14.1051 1.51136 14.1051 1.30114C14.1051 1.09091 14.1804 0.910511 14.331 0.759943C14.4815 0.609375 14.6619 0.534091 14.8722 0.534091C15.0824 0.534091 15.2628 0.609375 15.4134 0.759943C15.5639 0.910511 15.6392 1.09091 15.6392 1.30114C15.6392 1.44034 15.6037 1.56818 15.5327 1.68466C15.4645 1.80114 15.3722 1.89489 15.2557 1.96591C15.142 2.03409 15.0142 2.06818 14.8722 2.06818ZM18.1768 2.06818C17.9666 2.06818 17.7862 1.9929 17.6357 1.84233C17.4851 1.69176 17.4098 1.51136 17.4098 1.30114C17.4098 1.09091 17.4851 0.910511 17.6357 0.759943C17.7862 0.609375 17.9666 0.534091 18.1768 0.534091C18.3871 0.534091 18.5675 0.609375 18.718 0.759943C18.8686 0.910511 18.9439 1.09091 18.9439 1.30114C18.9439 1.44034 18.9084 1.56818 18.8374 1.68466C18.7692 1.80114 18.6768 1.89489 18.5604 1.96591C18.4467 2.03409 18.3189 2.06818 18.1768 2.06818ZM21.4815 2.06818C21.2713 2.06818 21.0909 1.9929 20.9403 1.84233C20.7898 1.69176 20.7145 1.51136 20.7145 1.30114C20.7145 1.09091 20.7898 0.910511 20.9403 0.759943C21.0909 0.609375 21.2713 0.534091 21.4815 0.534091C21.6918 0.534091 21.8722 0.609375 22.0227 0.759943C22.1733 0.910511 22.2486 1.09091 22.2486 1.30114C22.2486 1.44034 22.2131 1.56818 22.142 1.68466C22.0739 1.80114 21.9815 1.89489 21.8651 1.96591C21.7514 2.03409 21.6236 2.06818 21.4815 2.06818ZM24.7862 2.06818C24.576 2.06818 24.3956 1.9929 24.245 1.84233C24.0945 1.69176 24.0192 1.51136 24.0192 1.30114C24.0192 1.09091 24.0945 0.910511 24.245 0.759943C24.3956 0.609375 24.576 0.534091 24.7862 0.534091C24.9964 0.534091 25.1768 0.609375 25.3274 0.759943C25.478 0.910511 25.5533 1.09091 25.5533 1.30114C25.5533 1.44034 25.5178 1.56818 25.4467 1.68466C25.3786 1.80114 25.2862 1.89489 25.1697 1.96591C25.0561 2.03409 24.9283 2.06818 24.7862 2.06818ZM28.0909 2.06818C27.8807 2.06818 27.7003 1.9929 27.5497 1.84233C27.3991 1.69176 27.3239 1.51136 27.3239 1.30114C27.3239 1.09091 27.3991 0.910511 27.5497 0.759943C27.7003 0.609375 27.8807 0.534091 28.0909 0.534091C28.3011 0.534091 28.4815 0.609375 28.6321 0.759943C28.7827 0.910511 28.858 1.09091 28.858 1.30114C28.858 1.44034 28.8224 1.56818 28.7514 1.68466C28.6832 1.80114 28.5909 1.89489 28.4744 1.96591C28.3608 2.03409 28.233 2.06818 28.0909 2.06818ZM31.3956 2.06818C31.1854 2.06818 31.005 1.9929 30.8544 1.84233C30.7038 1.69176 30.6286 1.51136 30.6286 1.30114C30.6286 1.09091 30.7038 0.910511 30.8544 0.759943C31.005 0.609375 31.1854 0.534091 31.3956 0.534091C31.6058 0.534091 31.7862 0.609375 31.9368 0.759943C32.0874 0.910511 32.1626 1.09091 32.1626 1.30114C32.1626 1.44034 32.1271 1.56818 32.0561 1.68466C31.9879 1.80114 31.8956 1.89489 31.7791 1.96591C31.6655 2.03409 31.5376 2.06818 31.3956 2.06818ZM34.7003 2.06818C34.4901 2.06818 34.3097 1.9929 34.1591 1.84233C34.0085 1.69176 33.9332 1.51136 33.9332 1.30114C33.9332 1.09091 34.0085 0.910511 34.1591 0.759943C34.3097 0.609375 34.4901 0.534091 34.7003 0.534091C34.9105 0.534091 35.0909 0.609375 35.2415 0.759943C35.392 0.910511 35.4673 1.09091 35.4673 1.30114C35.4673 1.44034 35.4318 1.56818 35.3608 1.68466C35.2926 1.80114 35.2003 1.89489 35.0838 1.96591C34.9702 2.03409 34.8423 2.06818 34.7003 2.06818ZM38.005 2.06818C37.7947 2.06818 37.6143 1.9929 37.4638 1.84233C37.3132 1.69176 37.2379 1.51136 37.2379 1.30114C37.2379 1.09091 37.3132 0.910511 37.4638 0.759943C37.6143 0.609375 37.7947 0.534091 38.005 0.534091C38.2152 0.534091 38.3956 0.609375 38.5462 0.759943C38.6967 0.910511 38.772 1.09091 38.772 1.30114C38.772 1.44034 38.7365 1.56818 38.6655 1.68466C38.5973 1.80114 38.505 1.89489 38.3885 1.96591C38.2749 2.03409 38.147 2.06818 38.005 2.06818ZM41.3097 2.06818C41.0994 2.06818 40.919 1.9929 40.7685 1.84233C40.6179 1.69176 40.5426 1.51136 40.5426 1.30114C40.5426 1.09091 40.6179 0.910511 40.7685 0.759943C40.919 0.609375 41.0994 0.534091 41.3097 0.534091C41.5199 0.534091 41.7003 0.609375 41.8509 0.759943C42.0014 0.910511 42.0767 1.09091 42.0767 1.30114C42.0767 1.44034 42.0412 1.56818 41.9702 1.68466C41.902 1.80114 41.8097 1.89489 41.6932 1.96591C41.5795 2.03409 41.4517 2.06818 41.3097 2.06818ZM44.6143 2.06818C44.4041 2.06818 44.2237 1.9929 44.0732 1.84233C43.9226 1.69176 43.8473 1.51136 43.8473 1.30114C43.8473 1.09091 43.9226 0.910511 44.0732 0.759943C44.2237 0.609375 44.4041 0.534091 44.6143 0.534091C44.8246 0.534091 45.005 0.609375 45.1555 0.759943C45.3061 0.910511 45.3814 1.09091 45.3814 1.30114C45.3814 1.44034 45.3459 1.56818 45.2749 1.68466C45.2067 1.80114 45.1143 1.89489 44.9979 1.96591C44.8842 2.03409 44.7564 2.06818 44.6143 2.06818ZM47.919 2.06818C47.7088 2.06818 47.5284 1.9929 47.3778 1.84233C47.2273 1.69176 47.152 1.51136 47.152 1.30114C47.152 1.09091 47.2273 0.910511 47.3778 0.759943C47.5284 0.609375 47.7088 0.534091 47.919 0.534091C48.1293 0.534091 48.3097 0.609375 48.4602 0.759943C48.6108 0.910511 48.6861 1.09091 48.6861 1.30114C48.6861 1.44034 48.6506 1.56818 48.5795 1.68466C48.5114 1.80114 48.419 1.89489 48.3026 1.96591C48.1889 2.03409 48.0611 2.06818 47.919 2.06818ZM51.2237 2.06818C51.0135 2.06818 50.8331 1.9929 50.6825 1.84233C50.532 1.69176 50.4567 1.51136 50.4567 1.30114C50.4567 1.09091 50.532 0.910511 50.6825 0.759943C50.8331 0.609375 51.0135 0.534091 51.2237 0.534091C51.4339 0.534091 51.6143 0.609375 51.7649 0.759943C51.9155 0.910511 51.9908 1.09091 51.9908 1.30114C51.9908 1.44034 51.9553 1.56818 51.8842 1.68466C51.8161 1.80114 51.7237 1.89489 51.6072 1.96591C51.4936 2.03409 51.3658 2.06818 51.2237 2.06818ZM54.5284 2.06818C54.3182 2.06818 54.1378 1.9929 53.9872 1.84233C53.8366 1.69176 53.7614 1.51136 53.7614 1.30114C53.7614 1.09091 53.8366 0.910511 53.9872 0.759943C54.1378 0.609375 54.3182 0.534091 54.5284 0.534091C54.7386 0.534091 54.919 0.609375 55.0696 0.759943C55.2202 0.910511 55.2955 1.09091 55.2955 1.30114C55.2955 1.44034 55.2599 1.56818 55.1889 1.68466C55.1207 1.80114 55.0284 1.89489 54.9119 1.96591C54.7983 2.03409 54.6705 2.06818 54.5284 2.06818ZM57.8331 2.06818C57.6229 2.06818 57.4425 1.9929 57.2919 1.84233C57.1413 1.69176 57.0661 1.51136 57.0661 1.30114C57.0661 1.09091 57.1413 0.910511 57.2919 0.759943C57.4425 0.609375 57.6229 0.534091 57.8331 0.534091C58.0433 0.534091 58.2237 0.609375 58.3743 0.759943C58.5249 0.910511 58.6001 1.09091 58.6001 1.30114C58.6001 1.44034 58.5646 1.56818 58.4936 1.68466C58.4254 1.80114 58.3331 1.89489 58.2166 1.96591C58.103 2.03409 57.9751 2.06818 57.8331 2.06818ZM61.1378 2.06818C60.9276 2.06818 60.7472 1.9929 60.5966 1.84233C60.446 1.69176 60.3707 1.51136 60.3707 1.30114C60.3707 1.09091 60.446 0.910511 60.5966 0.759943C60.7472 0.609375 60.9276 0.534091 61.1378 0.534091C61.348 0.534091 61.5284 0.609375 61.679 0.759943C61.8295 0.910511 61.9048 1.09091 61.9048 1.30114C61.9048 1.44034 61.8693 1.56818 61.7983 1.68466C61.7301 1.80114 61.6378 1.89489 61.5213 1.96591C61.4077 2.03409 61.2798 2.06818 61.1378 2.06818ZM64.4425 2.06818C64.2322 2.06818 64.0518 1.9929 63.9013 1.84233C63.7507 1.69176 63.6754 1.51136 63.6754 1.30114C63.6754 1.09091 63.7507 0.910511 63.9013 0.759943C64.0518 0.609375 64.2322 0.534091 64.4425 0.534091C64.6527 0.534091 64.8331 0.609375 64.9837 0.759943C65.1342 0.910511 65.2095 1.09091 65.2095 1.30114C65.2095 1.44034 65.174 1.56818 65.103 1.68466C65.0348 1.80114 64.9425 1.89489 64.826 1.96591C64.7124 2.03409 64.5845 2.06818 64.4425 2.06818ZM67.7472 2.06818C67.5369 2.06818 67.3565 1.9929 67.206 1.84233C67.0554 1.69176 66.9801 1.51136 66.9801 1.30114C66.9801 1.09091 67.0554 0.910511 67.206 0.759943C67.3565 0.609375 67.5369 0.534091 67.7472 0.534091C67.9574 0.534091 68.1378 0.609375 68.2884 0.759943C68.4389 0.910511 68.5142 1.09091 68.5142 1.30114C68.5142 1.44034 68.4787 1.56818 68.4077 1.68466C68.3395 1.80114 68.2472 1.89489 68.1307 1.96591C68.017 2.03409 67.8892 2.06818 67.7472 2.06818ZM71.0518 2.06818C70.8416 2.06818 70.6612 1.9929 70.5107 1.84233C70.3601 1.69176 70.2848 1.51136 70.2848 1.30114C70.2848 1.09091 70.3601 0.910511 70.5107 0.759943C70.6612 0.609375 70.8416 0.534091 71.0518 0.534091C71.2621 0.534091 71.4425 0.609375 71.593 0.759943C71.7436 0.910511 71.8189 1.09091 71.8189 1.30114C71.8189 1.44034 71.7834 1.56818 71.7124 1.68466C71.6442 1.80114 71.5518 1.89489 71.4354 1.96591C71.3217 2.03409 71.1939 2.06818 71.0518 2.06818ZM74.3565 2.06818C74.1463 2.06818 73.9659 1.9929 73.8153 1.84233C73.6648 1.69176 73.5895 1.51136 73.5895 1.30114C73.5895 1.09091 73.6648 0.910511 73.8153 0.759943C73.9659 0.609375 74.1463 0.534091 74.3565 0.534091C74.5668 0.534091 74.7472 0.609375 74.8977 0.759943C75.0483 0.910511 75.1236 1.09091 75.1236 1.30114C75.1236 1.44034 75.0881 1.56818 75.017 1.68466C74.9489 1.80114 74.8565 1.89489 74.7401 1.96591C74.6264 2.03409 74.4986 2.06818 74.3565 2.06818ZM77.6612 2.06818C77.451 2.06818 77.2706 1.9929 77.12 1.84233C76.9695 1.69176 76.8942 1.51136 76.8942 1.30114C76.8942 1.09091 76.9695 0.910511 77.12 0.759943C77.2706 0.609375 77.451 0.534091 77.6612 0.534091C77.8714 0.534091 78.0518 0.609375 78.2024 0.759943C78.353 0.910511 78.4283 1.09091 78.4283 1.30114C78.4283 1.44034 78.3928 1.56818 78.3217 1.68466C78.2536 1.80114 78.1612 1.89489 78.0447 1.96591C77.9311 2.03409 77.8033 2.06818 77.6612 2.06818ZM80.9659 2.06818C80.7557 2.06818 80.5753 1.9929 80.4247 1.84233C80.2741 1.69176 80.1989 1.51136 80.1989 1.30114C80.1989 1.09091 80.2741 0.910511 80.4247 0.759943C80.5753 0.609375 80.7557 0.534091 80.9659 0.534091C81.1761 0.534091 81.3565 0.609375 81.5071 0.759943C81.6577 0.910511 81.733 1.09091 81.733 1.30114C81.733 1.44034 81.6974 1.56818 81.6264 1.68466C81.5582 1.80114 81.4659 1.89489 81.3494 1.96591C81.2358 2.03409 81.108 2.06818 80.9659 2.06818ZM84.2706 2.06818C84.0604 2.06818 83.88 1.9929 83.7294 1.84233C83.5788 1.69176 83.5036 1.51136 83.5036 1.30114C83.5036 1.09091 83.5788 0.910511 83.7294 0.759943C83.88 0.609375 84.0604 0.534091 84.2706 0.534091C84.4808 0.534091 84.6612 0.609375 84.8118 0.759943C84.9624 0.910511 85.0376 1.09091 85.0376 1.30114C85.0376 1.44034 85.0021 1.56818 84.9311 1.68466C84.8629 1.80114 84.7706 1.89489 84.6541 1.96591C84.5405 2.03409 84.4126 2.06818 84.2706 2.06818ZM87.5753 2.06818C87.3651 2.06818 87.1847 1.9929 87.0341 1.84233C86.8835 1.69176 86.8082 1.51136 86.8082 1.30114C86.8082 1.09091 86.8835 0.910511 87.0341 0.759943C87.1847 0.609375 87.3651 0.534091 87.5753 0.534091C87.7855 0.534091 87.9659 0.609375 88.1165 0.759943C88.267 0.910511 88.3423 1.09091 88.3423 1.30114C88.3423 1.44034 88.3068 1.56818 88.2358 1.68466C88.1676 1.80114 88.0753 1.89489 87.9588 1.96591C87.8452 2.03409 87.7173 2.06818 87.5753 2.06818ZM90.88 2.06818C90.6697 2.06818 90.4893 1.9929 90.3388 1.84233C90.1882 1.69176 90.1129 1.51136 90.1129 1.30114C90.1129 1.09091 90.1882 0.910511 90.3388 0.759943C90.4893 0.609375 90.6697 0.534091 90.88 0.534091C91.0902 0.534091 91.2706 0.609375 91.4212 0.759943C91.5717 0.910511 91.647 1.09091 91.647 1.30114C91.647 1.44034 91.6115 1.56818 91.5405 1.68466C91.4723 1.80114 91.38 1.89489 91.2635 1.96591C91.1499 2.03409 91.022 2.06818 90.88 2.06818ZM94.1847 2.06818C93.9744 2.06818 93.794 1.9929 93.6435 1.84233C93.4929 1.69176 93.4176 1.51136 93.4176 1.30114C93.4176 1.09091 93.4929 0.910511 93.6435 0.759943C93.794 0.609375 93.9744 0.534091 94.1847 0.534091C94.3949 0.534091 94.5753 0.609375 94.7259 0.759943C94.8764 0.910511 94.9517 1.09091 94.9517 1.30114C94.9517 1.44034 94.9162 1.56818 94.8452 1.68466C94.777 1.80114 94.6847 1.89489 94.5682 1.96591C94.4545 2.03409 94.3267 2.06818 94.1847 2.06818ZM97.4893 2.06818C97.2791 2.06818 97.0987 1.9929 96.9482 1.84233C96.7976 1.69176 96.7223 1.51136 96.7223 1.30114C96.7223 1.09091 96.7976 0.910511 96.9482 0.759943C97.0987 0.609375 97.2791 0.534091 97.4893 0.534091C97.6996 0.534091 97.88 0.609375 98.0305 0.759943C98.1811 0.910511 98.2564 1.09091 98.2564 1.30114C98.2564 1.44034 98.2209 1.56818 98.1499 1.68466C98.0817 1.80114 97.9893 1.89489 97.8729 1.96591C97.7592 2.03409 97.6314 2.06818 97.4893 2.06818ZM100.794 2.06818C100.584 2.06818 100.403 1.9929 100.253 1.84233C100.102 1.69176 100.027 1.51136 100.027 1.30114C100.027 1.09091 100.102 0.910511 100.253 0.759943C100.403 0.609375 100.584 0.534091 100.794 0.534091C101.004 0.534091 101.185 0.609375 101.335 0.759943C101.486 0.910511 101.561 1.09091 101.561 1.30114C101.561 1.44034 101.526 1.56818 101.455 1.68466C101.386 1.80114 101.294 1.89489 101.178 1.96591C101.064 2.03409 100.936 2.06818 100.794 2.06818ZM104.099 2.06818C103.888 2.06818 103.708 1.9929 103.558 1.84233C103.407 1.69176 103.332 1.51136 103.332 1.30114C103.332 1.09091 103.407 0.910511 103.558 0.759943C103.708 0.609375 103.888 0.534091 104.099 0.534091C104.309 0.534091 104.489 0.609375 104.64 0.759943C104.79 0.910511 104.866 1.09091 104.866 1.30114C104.866 1.44034 104.83 1.56818 104.759 1.68466C104.691 1.80114 104.599 1.89489 104.482 1.96591C104.369 2.03409 104.241 2.06818 104.099 2.06818ZM107.403 2.06818C107.193 2.06818 107.013 1.9929 106.862 1.84233C106.712 1.69176 106.636 1.51136 106.636 1.30114C106.636 1.09091 106.712 0.910511 106.862 0.759943C107.013 0.609375 107.193 0.534091 107.403 0.534091C107.614 0.534091 107.794 0.609375 107.945 0.759943C108.095 0.910511 108.17 1.09091 108.17 1.30114C108.17 1.44034 108.135 1.56818 108.064 1.68466C107.996 1.80114 107.903 1.89489 107.787 1.96591C107.673 2.03409 107.545 2.06818 107.403 2.06818ZM110.708 2.06818C110.498 2.06818 110.317 1.9929 110.167 1.84233C110.016 1.69176 109.941 1.51136 109.941 1.30114C109.941 1.09091 110.016 0.910511 110.167 0.759943C110.317 0.609375 110.498 0.534091 110.708 0.534091C110.918 0.534091 111.099 0.609375 111.249 0.759943C111.4 0.910511 111.475 1.09091 111.475 1.30114C111.475 1.44034 111.44 1.56818 111.369 1.68466C111.3 1.80114 111.208 1.89489 111.092 1.96591C110.978 2.03409 110.85 2.06818 110.708 2.06818ZM114.013 2.06818C113.803 2.06818 113.622 1.9929 113.472 1.84233C113.321 1.69176 113.246 1.51136 113.246 1.30114C113.246 1.09091 113.321 0.910511 113.472 0.759943C113.622 0.609375 113.803 0.534091 114.013 0.534091C114.223 0.534091 114.403 0.609375 114.554 0.759943C114.705 0.910511 114.78 1.09091 114.78 1.30114C114.78 1.44034 114.744 1.56818 114.673 1.68466C114.605 1.80114 114.513 1.89489 114.396 1.96591C114.283 2.03409 114.155 2.06818 114.013 2.06818ZM117.317 2.06818C117.107 2.06818 116.927 1.9929 116.776 1.84233C116.626 1.69176 116.55 1.51136 116.55 1.30114C116.55 1.09091 116.626 0.910511 116.776 0.759943C116.927 0.609375 117.107 0.534091 117.317 0.534091C117.528 0.534091 117.708 0.609375 117.859 0.759943C118.009 0.910511 118.085 1.09091 118.085 1.30114C118.085 1.44034 118.049 1.56818 117.978 1.68466C117.91 1.80114 117.817 1.89489 117.701 1.96591C117.587 2.03409 117.46 2.06818 117.317 2.06818ZM120.622 2.06818C120.412 2.06818 120.232 1.9929 120.081 1.84233C119.93 1.69176 119.855 1.51136 119.855 1.30114C119.855 1.09091 119.93 0.910511 120.081 0.759943C120.232 0.609375 120.412 0.534091 120.622 0.534091C120.832 0.534091 121.013 0.609375 121.163 0.759943C121.314 0.910511 121.389 1.09091 121.389 1.30114C121.389 1.44034 121.354 1.56818 121.283 1.68466C121.214 1.80114 121.122 1.89489 121.006 1.96591C120.892 2.03409 120.764 2.06818 120.622 2.06818ZM123.927 2.06818C123.717 2.06818 123.536 1.9929 123.386 1.84233C123.235 1.69176 123.16 1.51136 123.16 1.30114C123.16 1.09091 123.235 0.910511 123.386 0.759943C123.536 0.609375 123.717 0.534091 123.927 0.534091C124.137 0.534091 124.317 0.609375 124.468 0.759943C124.619 0.910511 124.694 1.09091 124.694 1.30114C124.694 1.44034 124.658 1.56818 124.587 1.68466C124.519 1.80114 124.427 1.89489 124.31 1.96591C124.197 2.03409 124.069 2.06818 123.927 2.06818ZM127.232 2.06818C127.021 2.06818 126.841 1.9929 126.69 1.84233C126.54 1.69176 126.464 1.51136 126.464 1.30114C126.464 1.09091 126.54 0.910511 126.69 0.759943C126.841 0.609375 127.021 0.534091 127.232 0.534091C127.442 0.534091 127.622 0.609375 127.773 0.759943C127.923 0.910511 127.999 1.09091 127.999 1.30114C127.999 1.44034 127.963 1.56818 127.892 1.68466C127.824 1.80114 127.732 1.89489 127.615 1.96591C127.501 2.03409 127.374 2.06818 127.232 2.06818ZM130.536 2.06818C130.326 2.06818 130.146 1.9929 129.995 1.84233C129.844 1.69176 129.769 1.51136 129.769 1.30114C129.769 1.09091 129.844 0.910511 129.995 0.759943C130.146 0.609375 130.326 0.534091 130.536 0.534091C130.746 0.534091 130.927 0.609375 131.077 0.759943C131.228 0.910511 131.303 1.09091 131.303 1.30114C131.303 1.44034 131.268 1.56818 131.197 1.68466C131.129 1.80114 131.036 1.89489 130.92 1.96591C130.806 2.03409 130.678 2.06818 130.536 2.06818ZM133.841 2.06818C133.631 2.06818 133.45 1.9929 133.3 1.84233C133.149 1.69176 133.074 1.51136 133.074 1.30114C133.074 1.09091 133.149 0.910511 133.3 0.759943C133.45 0.609375 133.631 0.534091 133.841 0.534091C134.051 0.534091 134.232 0.609375 134.382 0.759943C134.533 0.910511 134.608 1.09091 134.608 1.30114C134.608 1.44034 134.572 1.56818 134.501 1.68466C134.433 1.80114 134.341 1.89489 134.224 1.96591C134.111 2.03409 133.983 2.06818 133.841 2.06818ZM137.146 2.06818C136.935 2.06818 136.755 1.9929 136.604 1.84233C136.454 1.69176 136.379 1.51136 136.379 1.30114C136.379 1.09091 136.454 0.910511 136.604 0.759943C136.755 0.609375 136.935 0.534091 137.146 0.534091C137.356 0.534091 137.536 0.609375 137.687 0.759943C137.837 0.910511 137.913 1.09091 137.913 1.30114C137.913 1.44034 137.877 1.56818 137.806 1.68466C137.738 1.80114 137.646 1.89489 137.529 1.96591C137.415 2.03409 137.288 2.06818 137.146 2.06818ZM140.45 2.06818C140.24 2.06818 140.06 1.9929 139.909 1.84233C139.759 1.69176 139.683 1.51136 139.683 1.30114C139.683 1.09091 139.759 0.910511 139.909 0.759943C140.06 0.609375 140.24 0.534091 140.45 0.534091C140.661 0.534091 140.841 0.609375 140.991 0.759943C141.142 0.910511 141.217 1.09091 141.217 1.30114C141.217 1.44034 141.182 1.56818 141.111 1.68466C141.043 1.80114 140.95 1.89489 140.834 1.96591C140.72 2.03409 140.592 2.06818 140.45 2.06818ZM143.755 2.06818C143.545 2.06818 143.364 1.9929 143.214 1.84233C143.063 1.69176 142.988 1.51136 142.988 1.30114C142.988 1.09091 143.063 0.910511 143.214 0.759943C143.364 0.609375 143.545 0.534091 143.755 0.534091C143.965 0.534091 144.146 0.609375 144.296 0.759943C144.447 0.910511 144.522 1.09091 144.522 1.30114C144.522 1.44034 144.487 1.56818 144.415 1.68466C144.347 1.80114 144.255 1.89489 144.138 1.96591C144.025 2.03409 143.897 2.06818 143.755 2.06818ZM147.06 2.06818C146.849 2.06818 146.669 1.9929 146.518 1.84233C146.368 1.69176 146.293 1.51136 146.293 1.30114C146.293 1.09091 146.368 0.910511 146.518 0.759943C146.669 0.609375 146.849 0.534091 147.06 0.534091C147.27 0.534091 147.45 0.609375 147.601 0.759943C147.751 0.910511 147.827 1.09091 147.827 1.30114C147.827 1.44034 147.791 1.56818 147.72 1.68466C147.652 1.80114 147.56 1.89489 147.443 1.96591C147.33 2.03409 147.202 2.06818 147.06 2.06818ZM150.364 2.06818C150.154 2.06818 149.974 1.9929 149.823 1.84233C149.673 1.69176 149.597 1.51136 149.597 1.30114C149.597 1.09091 149.673 0.910511 149.823 0.759943C149.974 0.609375 150.154 0.534091 150.364 0.534091C150.575 0.534091 150.755 0.609375 150.906 0.759943C151.056 0.910511 151.131 1.09091 151.131 1.30114C151.131 1.44034 151.096 1.56818 151.025 1.68466C150.957 1.80114 150.864 1.89489 150.748 1.96591C150.634 2.03409 150.506 2.06818 150.364 2.06818ZM153.669 2.06818C153.459 2.06818 153.278 1.9929 153.128 1.84233C152.977 1.69176 152.902 1.51136 152.902 1.30114C152.902 1.09091 152.977 0.910511 153.128 0.759943C153.278 0.609375 153.459 0.534091 153.669 0.534091C153.879 0.534091 154.06 0.609375 154.21 0.759943C154.361 0.910511 154.436 1.09091 154.436 1.30114C154.436 1.44034 154.401 1.56818 154.33 1.68466C154.261 1.80114 154.169 1.89489 154.053 1.96591C153.939 2.03409 153.811 2.06818 153.669 2.06818ZM156.974 2.06818C156.763 2.06818 156.583 1.9929 156.433 1.84233C156.282 1.69176 156.207 1.51136 156.207 1.30114C156.207 1.09091 156.282 0.910511 156.433 0.759943C156.583 0.609375 156.763 0.534091 156.974 0.534091C157.184 0.534091 157.364 0.609375 157.515 0.759943C157.665 0.910511 157.741 1.09091 157.741 1.30114C157.741 1.44034 157.705 1.56818 157.634 1.68466C157.566 1.80114 157.474 1.89489 157.357 1.96591C157.244 2.03409 157.116 2.06818 156.974 2.06818ZM160.278 2.06818C160.068 2.06818 159.888 1.9929 159.737 1.84233C159.587 1.69176 159.511 1.51136 159.511 1.30114C159.511 1.09091 159.587 0.910511 159.737 0.759943C159.888 0.609375 160.068 0.534091 160.278 0.534091C160.489 0.534091 160.669 0.609375 160.82 0.759943C160.97 0.910511 161.045 1.09091 161.045 1.30114C161.045 1.44034 161.01 1.56818 160.939 1.68466C160.871 1.80114 160.778 1.89489 160.662 1.96591C160.548 2.03409 160.42 2.06818 160.278 2.06818ZM163.583 2.06818C163.373 2.06818 163.192 1.9929 163.042 1.84233C162.891 1.69176 162.816 1.51136 162.816 1.30114C162.816 1.09091 162.891 0.910511 163.042 0.759943C163.192 0.609375 163.373 0.534091 163.583 0.534091C163.793 0.534091 163.974 0.609375 164.124 0.759943C164.275 0.910511 164.35 1.09091 164.35 1.30114C164.35 1.44034 164.315 1.56818 164.244 1.68466C164.175 1.80114 164.083 1.89489 163.967 1.96591C163.853 2.03409 163.725 2.06818 163.583 2.06818ZM166.888 2.06818C166.678 2.06818 166.497 1.9929 166.347 1.84233C166.196 1.69176 166.121 1.51136 166.121 1.30114C166.121 1.09091 166.196 0.910511 166.347 0.759943C166.497 0.609375 166.678 0.534091 166.888 0.534091C167.098 0.534091 167.278 0.609375 167.429 0.759943C167.58 0.910511 167.655 1.09091 167.655 1.30114C167.655 1.44034 167.619 1.56818 167.548 1.68466C167.48 1.80114 167.388 1.89489 167.271 1.96591C167.158 2.03409 167.03 2.06818 166.888 2.06818ZM170.192 2.06818C169.982 2.06818 169.802 1.9929 169.651 1.84233C169.501 1.69176 169.425 1.51136 169.425 1.30114C169.425 1.09091 169.501 0.910511 169.651 0.759943C169.802 0.609375 169.982 0.534091 170.192 0.534091C170.403 0.534091 170.583 0.609375 170.734 0.759943C170.884 0.910511 170.96 1.09091 170.96 1.30114C170.96 1.44034 170.924 1.56818 170.853 1.68466C170.785 1.80114 170.692 1.89489 170.576 1.96591C170.462 2.03409 170.335 2.06818 170.192 2.06818ZM173.497 2.06818C173.287 2.06818 173.107 1.9929 172.956 1.84233C172.805 1.69176 172.73 1.51136 172.73 1.30114C172.73 1.09091 172.805 0.910511 172.956 0.759943C173.107 0.609375 173.287 0.534091 173.497 0.534091C173.707 0.534091 173.888 0.609375 174.038 0.759943C174.189 0.910511 174.264 1.09091 174.264 1.30114C174.264 1.44034 174.229 1.56818 174.158 1.68466C174.089 1.80114 173.997 1.89489 173.881 1.96591C173.767 2.03409 173.639 2.06818 173.497 2.06818ZM176.802 2.06818C176.592 2.06818 176.411 1.9929 176.261 1.84233C176.11 1.69176 176.035 1.51136 176.035 1.30114C176.035 1.09091 176.11 0.910511 176.261 0.759943C176.411 0.609375 176.592 0.534091 176.802 0.534091C177.012 0.534091 177.192 0.609375 177.343 0.759943C177.494 0.910511 177.569 1.09091 177.569 1.30114C177.569 1.44034 177.533 1.56818 177.462 1.68466C177.394 1.80114 177.302 1.89489 177.185 1.96591C177.072 2.03409 176.944 2.06818 176.802 2.06818ZM180.107 2.06818C179.896 2.06818 179.716 1.9929 179.565 1.84233C179.415 1.69176 179.339 1.51136 179.339 1.30114C179.339 1.09091 179.415 0.910511 179.565 0.759943C179.716 0.609375 179.896 0.534091 180.107 0.534091C180.317 0.534091 180.497 0.609375 180.648 0.759943C180.798 0.910511 180.874 1.09091 180.874 1.30114C180.874 1.44034 180.838 1.56818 180.767 1.68466C180.699 1.80114 180.607 1.89489 180.49 1.96591C180.376 2.03409 180.249 2.06818 180.107 2.06818ZM183.411 2.06818C183.201 2.06818 183.021 1.9929 182.87 1.84233C182.719 1.69176 182.644 1.51136 182.644 1.30114C182.644 1.09091 182.719 0.910511 182.87 0.759943C183.021 0.609375 183.201 0.534091 183.411 0.534091C183.621 0.534091 183.802 0.609375 183.952 0.759943C184.103 0.910511 184.178 1.09091 184.178 1.30114C184.178 1.44034 184.143 1.56818 184.072 1.68466C184.004 1.80114 183.911 1.89489 183.795 1.96591C183.681 2.03409 183.553 2.06818 183.411 2.06818ZM186.716 2.06818C186.506 2.06818 186.325 1.9929 186.175 1.84233C186.024 1.69176 185.949 1.51136 185.949 1.30114C185.949 1.09091 186.024 0.910511 186.175 0.759943C186.325 0.609375 186.506 0.534091 186.716 0.534091C186.926 0.534091 187.107 0.609375 187.257 0.759943C187.408 0.910511 187.483 1.09091 187.483 1.30114C187.483 1.44034 187.447 1.56818 187.376 1.68466C187.308 1.80114 187.216 1.89489 187.099 1.96591C186.986 2.03409 186.858 2.06818 186.716 2.06818ZM190.021 2.06818C189.81 2.06818 189.63 1.9929 189.479 1.84233C189.329 1.69176 189.254 1.51136 189.254 1.30114C189.254 1.09091 189.329 0.910511 189.479 0.759943C189.63 0.609375 189.81 0.534091 190.021 0.534091C190.231 0.534091 190.411 0.609375 190.562 0.759943C190.712 0.910511 190.788 1.09091 190.788 1.30114C190.788 1.44034 190.752 1.56818 190.681 1.68466C190.613 1.80114 190.521 1.89489 190.404 1.96591C190.29 2.03409 190.163 2.06818 190.021 2.06818ZM193.325 2.06818C193.115 2.06818 192.935 1.9929 192.784 1.84233C192.634 1.69176 192.558 1.51136 192.558 1.30114C192.558 1.09091 192.634 0.910511 192.784 0.759943C192.935 0.609375 193.115 0.534091 193.325 0.534091C193.536 0.534091 193.716 0.609375 193.866 0.759943C194.017 0.910511 194.092 1.09091 194.092 1.30114C194.092 1.44034 194.057 1.56818 193.986 1.68466C193.918 1.80114 193.825 1.89489 193.709 1.96591C193.595 2.03409 193.467 2.06818 193.325 2.06818ZM196.63 2.06818C196.42 2.06818 196.239 1.9929 196.089 1.84233C195.938 1.69176 195.863 1.51136 195.863 1.30114C195.863 1.09091 195.938 0.910511 196.089 0.759943C196.239 0.609375 196.42 0.534091 196.63 0.534091C196.84 0.534091 197.021 0.609375 197.171 0.759943C197.322 0.910511 197.397 1.09091 197.397 1.30114C197.397 1.44034 197.362 1.56818 197.29 1.68466C197.222 1.80114 197.13 1.89489 197.013 1.96591C196.9 2.03409 196.772 2.06818 196.63 2.06818ZM199.935 2.06818C199.724 2.06818 199.544 1.9929 199.393 1.84233C199.243 1.69176 199.168 1.51136 199.168 1.30114C199.168 1.09091 199.243 0.910511 199.393 0.759943C199.544 0.609375 199.724 0.534091 199.935 0.534091C200.145 0.534091 200.325 0.609375 200.476 0.759943C200.626 0.910511 200.702 1.09091 200.702 1.30114C200.702 1.44034 200.666 1.56818 200.595 1.68466C200.527 1.80114 200.435 1.89489 200.318 1.96591C200.205 2.03409 200.077 2.06818 199.935 2.06818ZM203.239 2.06818C203.029 2.06818 202.849 1.9929 202.698 1.84233C202.548 1.69176 202.472 1.51136 202.472 1.30114C202.472 1.09091 202.548 0.910511 202.698 0.759943C202.849 0.609375 203.029 0.534091 203.239 0.534091C203.45 0.534091 203.63 0.609375 203.781 0.759943C203.931 0.910511 204.006 1.09091 204.006 1.30114C204.006 1.44034 203.971 1.56818 203.9 1.68466C203.832 1.80114 203.739 1.89489 203.623 1.96591C203.509 2.03409 203.381 2.06818 203.239 2.06818ZM206.544 2.06818C206.334 2.06818 206.153 1.9929 206.003 1.84233C205.852 1.69176 205.777 1.51136 205.777 1.30114C205.777 1.09091 205.852 0.910511 206.003 0.759943C206.153 0.609375 206.334 0.534091 206.544 0.534091C206.754 0.534091 206.935 0.609375 207.085 0.759943C207.236 0.910511 207.311 1.09091 207.311 1.30114C207.311 1.44034 207.276 1.56818 207.205 1.68466C207.136 1.80114 207.044 1.89489 206.928 1.96591C206.814 2.03409 206.686 2.06818 206.544 2.06818ZM209.849 2.06818C209.638 2.06818 209.458 1.9929 209.308 1.84233C209.157 1.69176 209.082 1.51136 209.082 1.30114C209.082 1.09091 209.157 0.910511 209.308 0.759943C209.458 0.609375 209.638 0.534091 209.849 0.534091C210.059 0.534091 210.239 0.609375 210.39 0.759943C210.54 0.910511 210.616 1.09091 210.616 1.30114C210.616 1.44034 210.58 1.56818 210.509 1.68466C210.441 1.80114 210.349 1.89489 210.232 1.96591C210.119 2.03409 209.991 2.06818 209.849 2.06818ZM213.153 2.06818C212.943 2.06818 212.763 1.9929 212.612 1.84233C212.462 1.69176 212.386 1.51136 212.386 1.30114C212.386 1.09091 212.462 0.910511 212.612 0.759943C212.763 0.609375 212.943 0.534091 213.153 0.534091C213.364 0.534091 213.544 0.609375 213.695 0.759943C213.845 0.910511 213.92 1.09091 213.92 1.30114C213.92 1.44034 213.885 1.56818 213.814 1.68466C213.746 1.80114 213.653 1.89489 213.537 1.96591C213.423 2.03409 213.295 2.06818 213.153 2.06818ZM216.458 2.06818C216.248 2.06818 216.067 1.9929 215.917 1.84233C215.766 1.69176 215.691 1.51136 215.691 1.30114C215.691 1.09091 215.766 0.910511 215.917 0.759943C216.067 0.609375 216.248 0.534091 216.458 0.534091C216.668 0.534091 216.849 0.609375 216.999 0.759943C217.15 0.910511 217.225 1.09091 217.225 1.30114C217.225 1.44034 217.19 1.56818 217.119 1.68466C217.05 1.80114 216.958 1.89489 216.842 1.96591C216.728 2.03409 216.6 2.06818 216.458 2.06818ZM219.763 2.06818C219.553 2.06818 219.372 1.9929 219.222 1.84233C219.071 1.69176 218.996 1.51136 218.996 1.30114C218.996 1.09091 219.071 0.910511 219.222 0.759943C219.372 0.609375 219.553 0.534091 219.763 0.534091C219.973 0.534091 220.153 0.609375 220.304 0.759943C220.455 0.910511 220.53 1.09091 220.53 1.30114C220.53 1.44034 220.494 1.56818 220.423 1.68466C220.355 1.80114 220.263 1.89489 220.146 1.96591C220.033 2.03409 219.905 2.06818 219.763 2.06818ZM223.067 2.06818C222.857 2.06818 222.677 1.9929 222.526 1.84233C222.376 1.69176 222.3 1.51136 222.3 1.30114C222.3 1.09091 222.376 0.910511 222.526 0.759943C222.677 0.609375 222.857 0.534091 223.067 0.534091C223.278 0.534091 223.458 0.609375 223.609 0.759943C223.759 0.910511 223.835 1.09091 223.835 1.30114C223.835 1.44034 223.799 1.56818 223.728 1.68466C223.66 1.80114 223.567 1.89489 223.451 1.96591C223.337 2.03409 223.21 2.06818 223.067 2.06818ZM226.372 2.06818C226.162 2.06818 225.982 1.9929 225.831 1.84233C225.68 1.69176 225.605 1.51136 225.605 1.30114C225.605 1.09091 225.68 0.910511 225.831 0.759943C225.982 0.609375 226.162 0.534091 226.372 0.534091C226.582 0.534091 226.763 0.609375 226.913 0.759943C227.064 0.910511 227.139 1.09091 227.139 1.30114C227.139 1.44034 227.104 1.56818 227.033 1.68466C226.964 1.80114 226.872 1.89489 226.756 1.96591C226.642 2.03409 226.514 2.06818 226.372 2.06818ZM229.677 2.06818C229.467 2.06818 229.286 1.9929 229.136 1.84233C228.985 1.69176 228.91 1.51136 228.91 1.30114C228.91 1.09091 228.985 0.910511 229.136 0.759943C229.286 0.609375 229.467 0.534091 229.677 0.534091C229.887 0.534091 230.067 0.609375 230.218 0.759943C230.369 0.910511 230.444 1.09091 230.444 1.30114C230.444 1.44034 230.408 1.56818 230.337 1.68466C230.269 1.80114 230.177 1.89489 230.06 1.96591C229.947 2.03409 229.819 2.06818 229.677 2.06818ZM232.982 2.06818C232.771 2.06818 232.591 1.9929 232.44 1.84233C232.29 1.69176 232.214 1.51136 232.214 1.30114C232.214 1.09091 232.29 0.910511 232.44 0.759943C232.591 0.609375 232.771 0.534091 232.982 0.534091C233.192 0.534091 233.372 0.609375 233.523 0.759943C233.673 0.910511 233.749 1.09091 233.749 1.30114C233.749 1.44034 233.713 1.56818 233.642 1.68466C233.574 1.80114 233.482 1.89489 233.365 1.96591C233.251 2.03409 233.124 2.06818 232.982 2.06818ZM236.286 2.06818C236.076 2.06818 235.896 1.9929 235.745 1.84233C235.594 1.69176 235.519 1.51136 235.519 1.30114C235.519 1.09091 235.594 0.910511 235.745 0.759943C235.896 0.609375 236.076 0.534091 236.286 0.534091C236.496 0.534091 236.677 0.609375 236.827 0.759943C236.978 0.910511 237.053 1.09091 237.053 1.30114C237.053 1.44034 237.018 1.56818 236.947 1.68466C236.879 1.80114 236.786 1.89489 236.67 1.96591C236.556 2.03409 236.428 2.06818 236.286 2.06818ZM239.591 2.06818C239.381 2.06818 239.2 1.9929 239.05 1.84233C238.899 1.69176 238.824 1.51136 238.824 1.30114C238.824 1.09091 238.899 0.910511 239.05 0.759943C239.2 0.609375 239.381 0.534091 239.591 0.534091C239.801 0.534091 239.982 0.609375 240.132 0.759943C240.283 0.910511 240.358 1.09091 240.358 1.30114C240.358 1.44034 240.322 1.56818 240.251 1.68466C240.183 1.80114 240.091 1.89489 239.974 1.96591C239.861 2.03409 239.733 2.06818 239.591 2.06818ZM242.896 2.06818C242.685 2.06818 242.505 1.9929 242.354 1.84233C242.204 1.69176 242.129 1.51136 242.129 1.30114C242.129 1.09091 242.204 0.910511 242.354 0.759943C242.505 0.609375 242.685 0.534091 242.896 0.534091C243.106 0.534091 243.286 0.609375 243.437 0.759943C243.587 0.910511 243.663 1.09091 243.663 1.30114C243.663 1.44034 243.627 1.56818 243.556 1.68466C243.488 1.80114 243.396 1.89489 243.279 1.96591C243.165 2.03409 243.038 2.06818 242.896 2.06818ZM246.2 2.06818C245.99 2.06818 245.81 1.9929 245.659 1.84233C245.509 1.69176 245.433 1.51136 245.433 1.30114C245.433 1.09091 245.509 0.910511 245.659 0.759943C245.81 0.609375 245.99 0.534091 246.2 0.534091C246.411 0.534091 246.591 0.609375 246.741 0.759943C246.892 0.910511 246.967 1.09091 246.967 1.30114C246.967 1.44034 246.932 1.56818 246.861 1.68466C246.793 1.80114 246.7 1.89489 246.584 1.96591C246.47 2.03409 246.342 2.06818 246.2 2.06818ZM249.505 2.06818C249.295 2.06818 249.114 1.9929 248.964 1.84233C248.813 1.69176 248.738 1.51136 248.738 1.30114C248.738 1.09091 248.813 0.910511 248.964 0.759943C249.114 0.609375 249.295 0.534091 249.505 0.534091C249.715 0.534091 249.896 0.609375 250.046 0.759943C250.197 0.910511 250.272 1.09091 250.272 1.30114C250.272 1.44034 250.237 1.56818 250.165 1.68466C250.097 1.80114 250.005 1.89489 249.888 1.96591C249.775 2.03409 249.647 2.06818 249.505 2.06818ZM252.81 2.06818C252.599 2.06818 252.419 1.9929 252.268 1.84233C252.118 1.69176 252.043 1.51136 252.043 1.30114C252.043 1.09091 252.118 0.910511 252.268 0.759943C252.419 0.609375 252.599 0.534091 252.81 0.534091C253.02 0.534091 253.2 0.609375 253.351 0.759943C253.501 0.910511 253.577 1.09091 253.577 1.30114C253.577 1.44034 253.541 1.56818 253.47 1.68466C253.402 1.80114 253.31 1.89489 253.193 1.96591C253.08 2.03409 252.952 2.06818 252.81 2.06818ZM256.114 2.06818C255.904 2.06818 255.724 1.9929 255.573 1.84233C255.423 1.69176 255.347 1.51136 255.347 1.30114C255.347 1.09091 255.423 0.910511 255.573 0.759943C255.724 0.609375 255.904 0.534091 256.114 0.534091C256.325 0.534091 256.505 0.609375 256.656 0.759943C256.806 0.910511 256.881 1.09091 256.881 1.30114C256.881 1.44034 256.846 1.56818 256.775 1.68466C256.707 1.80114 256.614 1.89489 256.498 1.96591C256.384 2.03409 256.256 2.06818 256.114 2.06818ZM259.419 2.06818C259.209 2.06818 259.028 1.9929 258.878 1.84233C258.727 1.69176 258.652 1.51136 258.652 1.30114C258.652 1.09091 258.727 0.910511 258.878 0.759943C259.028 0.609375 259.209 0.534091 259.419 0.534091C259.629 0.534091 259.81 0.609375 259.96 0.759943C260.111 0.910511 260.186 1.09091 260.186 1.30114C260.186 1.44034 260.151 1.56818 260.08 1.68466C260.011 1.80114 259.919 1.89489 259.803 1.96591C259.689 2.03409 259.561 2.06818 259.419 2.06818ZM262.724 2.06818C262.513 2.06818 262.333 1.9929 262.183 1.84233C262.032 1.69176 261.957 1.51136 261.957 1.30114C261.957 1.09091 262.032 0.910511 262.183 0.759943C262.333 0.609375 262.513 0.534091 262.724 0.534091C262.934 0.534091 263.114 0.609375 263.265 0.759943C263.415 0.910511 263.491 1.09091 263.491 1.30114C263.491 1.44034 263.455 1.56818 263.384 1.68466C263.316 1.80114 263.224 1.89489 263.107 1.96591C262.994 2.03409 262.866 2.06818 262.724 2.06818ZM266.028 2.06818C265.818 2.06818 265.638 1.9929 265.487 1.84233C265.337 1.69176 265.261 1.51136 265.261 1.30114C265.261 1.09091 265.337 0.910511 265.487 0.759943C265.638 0.609375 265.818 0.534091 266.028 0.534091C266.239 0.534091 266.419 0.609375 266.57 0.759943C266.72 0.910511 266.795 1.09091 266.795 1.30114C266.795 1.44034 266.76 1.56818 266.689 1.68466C266.621 1.80114 266.528 1.89489 266.412 1.96591C266.298 2.03409 266.17 2.06818 266.028 2.06818ZM269.333 2.06818C269.123 2.06818 268.942 1.9929 268.792 1.84233C268.641 1.69176 268.566 1.51136 268.566 1.30114C268.566 1.09091 268.641 0.910511 268.792 0.759943C268.942 0.609375 269.123 0.534091 269.333 0.534091C269.543 0.534091 269.724 0.609375 269.874 0.759943C270.025 0.910511 270.1 1.09091 270.1 1.30114C270.1 1.44034 270.065 1.56818 269.994 1.68466C269.925 1.80114 269.833 1.89489 269.717 1.96591C269.603 2.03409 269.475 2.06818 269.333 2.06818ZM272.638 2.06818C272.428 2.06818 272.247 1.9929 272.097 1.84233C271.946 1.69176 271.871 1.51136 271.871 1.30114C271.871 1.09091 271.946 0.910511 272.097 0.759943C272.247 0.609375 272.428 0.534091 272.638 0.534091C272.848 0.534091 273.028 0.609375 273.179 0.759943C273.33 0.910511 273.405 1.09091 273.405 1.30114C273.405 1.44034 273.369 1.56818 273.298 1.68466C273.23 1.80114 273.138 1.89489 273.021 1.96591C272.908 2.03409 272.78 2.06818 272.638 2.06818ZM275.942 2.06818C275.732 2.06818 275.552 1.9929 275.401 1.84233C275.251 1.69176 275.175 1.51136 275.175 1.30114C275.175 1.09091 275.251 0.910511 275.401 0.759943C275.552 0.609375 275.732 0.534091 275.942 0.534091C276.153 0.534091 276.333 0.609375 276.484 0.759943C276.634 0.910511 276.71 1.09091 276.71 1.30114C276.71 1.44034 276.674 1.56818 276.603 1.68466C276.535 1.80114 276.442 1.89489 276.326 1.96591C276.212 2.03409 276.085 2.06818 275.942 2.06818ZM279.247 2.06818C279.037 2.06818 278.857 1.9929 278.706 1.84233C278.555 1.69176 278.48 1.51136 278.48 1.30114C278.48 1.09091 278.555 0.910511 278.706 0.759943C278.857 0.609375 279.037 0.534091 279.247 0.534091C279.457 0.534091 279.638 0.609375 279.788 0.759943C279.939 0.910511 280.014 1.09091 280.014 1.30114C280.014 1.44034 279.979 1.56818 279.908 1.68466C279.839 1.80114 279.747 1.89489 279.631 1.96591C279.517 2.03409 279.389 2.06818 279.247 2.06818ZM282.552 2.06818C282.342 2.06818 282.161 1.9929 282.011 1.84233C281.86 1.69176 281.785 1.51136 281.785 1.30114C281.785 1.09091 281.86 0.910511 282.011 0.759943C282.161 0.609375 282.342 0.534091 282.552 0.534091C282.762 0.534091 282.942 0.609375 283.093 0.759943C283.244 0.910511 283.319 1.09091 283.319 1.30114C283.319 1.44034 283.283 1.56818 283.212 1.68466C283.144 1.80114 283.052 1.89489 282.935 1.96591C282.822 2.03409 282.694 2.06818 282.552 2.06818ZM285.857 2.06818C285.646 2.06818 285.466 1.9929 285.315 1.84233C285.165 1.69176 285.089 1.51136 285.089 1.30114C285.089 1.09091 285.165 0.910511 285.315 0.759943C285.466 0.609375 285.646 0.534091 285.857 0.534091C286.067 0.534091 286.247 0.609375 286.398 0.759943C286.548 0.910511 286.624 1.09091 286.624 1.30114C286.624 1.44034 286.588 1.56818 286.517 1.68466C286.449 1.80114 286.357 1.89489 286.24 1.96591C286.126 2.03409 285.999 2.06818 285.857 2.06818ZM289.161 2.06818C288.951 2.06818 288.771 1.9929 288.62 1.84233C288.469 1.69176 288.394 1.51136 288.394 1.30114C288.394 1.09091 288.469 0.910511 288.62 0.759943C288.771 0.609375 288.951 0.534091 289.161 0.534091C289.371 0.534091 289.552 0.609375 289.702 0.759943C289.853 0.910511 289.928 1.09091 289.928 1.30114C289.928 1.44034 289.893 1.56818 289.822 1.68466C289.754 1.80114 289.661 1.89489 289.545 1.96591C289.431 2.03409 289.303 2.06818 289.161 2.06818ZM292.466 2.06818C292.256 2.06818 292.075 1.9929 291.925 1.84233C291.774 1.69176 291.699 1.51136 291.699 1.30114C291.699 1.09091 291.774 0.910511 291.925 0.759943C292.075 0.609375 292.256 0.534091 292.466 0.534091C292.676 0.534091 292.857 0.609375 293.007 0.759943C293.158 0.910511 293.233 1.09091 293.233 1.30114C293.233 1.44034 293.197 1.56818 293.126 1.68466C293.058 1.80114 292.966 1.89489 292.849 1.96591C292.736 2.03409 292.608 2.06818 292.466 2.06818ZM295.771 2.06818C295.56 2.06818 295.38 1.9929 295.229 1.84233C295.079 1.69176 295.004 1.51136 295.004 1.30114C295.004 1.09091 295.079 0.910511 295.229 0.759943C295.38 0.609375 295.56 0.534091 295.771 0.534091C295.981 0.534091 296.161 0.609375 296.312 0.759943C296.462 0.910511 296.538 1.09091 296.538 1.30114C296.538 1.44034 296.502 1.56818 296.431 1.68466C296.363 1.80114 296.271 1.89489 296.154 1.96591C296.04 2.03409 295.913 2.06818 295.771 2.06818ZM299.075 2.06818C298.865 2.06818 298.685 1.9929 298.534 1.84233C298.384 1.69176 298.308 1.51136 298.308 1.30114C298.308 1.09091 298.384 0.910511 298.534 0.759943C298.685 0.609375 298.865 0.534091 299.075 0.534091C299.286 0.534091 299.466 0.609375 299.616 0.759943C299.767 0.910511 299.842 1.09091 299.842 1.30114C299.842 1.44034 299.807 1.56818 299.736 1.68466C299.668 1.80114 299.575 1.89489 299.459 1.96591C299.345 2.03409 299.217 2.06818 299.075 2.06818ZM302.38 2.06818C302.17 2.06818 301.989 1.9929 301.839 1.84233C301.688 1.69176 301.613 1.51136 301.613 1.30114C301.613 1.09091 301.688 0.910511 301.839 0.759943C301.989 0.609375 302.17 0.534091 302.38 0.534091C302.59 0.534091 302.771 0.609375 302.921 0.759943C303.072 0.910511 303.147 1.09091 303.147 1.30114C303.147 1.44034 303.112 1.56818 303.04 1.68466C302.972 1.80114 302.88 1.89489 302.763 1.96591C302.65 2.03409 302.522 2.06818 302.38 2.06818ZM305.685 2.06818C305.474 2.06818 305.294 1.9929 305.143 1.84233C304.993 1.69176 304.918 1.51136 304.918 1.30114C304.918 1.09091 304.993 0.910511 305.143 0.759943C305.294 0.609375 305.474 0.534091 305.685 0.534091C305.895 0.534091 306.075 0.609375 306.226 0.759943C306.376 0.910511 306.452 1.09091 306.452 1.30114C306.452 1.44034 306.416 1.56818 306.345 1.68466C306.277 1.80114 306.185 1.89489 306.068 1.96591C305.955 2.03409 305.827 2.06818 305.685 2.06818ZM308.989 2.06818C308.779 2.06818 308.599 1.9929 308.448 1.84233C308.298 1.69176 308.222 1.51136 308.222 1.30114C308.222 1.09091 308.298 0.910511 308.448 0.759943C308.599 0.609375 308.779 0.534091 308.989 0.534091C309.2 0.534091 309.38 0.609375 309.531 0.759943C309.681 0.910511 309.756 1.09091 309.756 1.30114C309.756 1.44034 309.721 1.56818 309.65 1.68466C309.582 1.80114 309.489 1.89489 309.373 1.96591C309.259 2.03409 309.131 2.06818 308.989 2.06818ZM312.294 2.06818C312.084 2.06818 311.903 1.9929 311.753 1.84233C311.602 1.69176 311.527 1.51136 311.527 1.30114C311.527 1.09091 311.602 0.910511 311.753 0.759943C311.903 0.609375 312.084 0.534091 312.294 0.534091C312.504 0.534091 312.685 0.609375 312.835 0.759943C312.986 0.910511 313.061 1.09091 313.061 1.30114C313.061 1.44034 313.026 1.56818 312.955 1.68466C312.886 1.80114 312.794 1.89489 312.678 1.96591C312.564 2.03409 312.436 2.06818 312.294 2.06818ZM315.599 2.06818C315.388 2.06818 315.208 1.9929 315.058 1.84233C314.907 1.69176 314.832 1.51136 314.832 1.30114C314.832 1.09091 314.907 0.910511 315.058 0.759943C315.208 0.609375 315.388 0.534091 315.599 0.534091C315.809 0.534091 315.989 0.609375 316.14 0.759943C316.29 0.910511 316.366 1.09091 316.366 1.30114C316.366 1.44034 316.33 1.56818 316.259 1.68466C316.191 1.80114 316.099 1.89489 315.982 1.96591C315.869 2.03409 315.741 2.06818 315.599 2.06818ZM318.903 2.06818C318.693 2.06818 318.513 1.9929 318.362 1.84233C318.212 1.69176 318.136 1.51136 318.136 1.30114C318.136 1.09091 318.212 0.910511 318.362 0.759943C318.513 0.609375 318.693 0.534091 318.903 0.534091C319.114 0.534091 319.294 0.609375 319.445 0.759943C319.595 0.910511 319.67 1.09091 319.67 1.30114C319.67 1.44034 319.635 1.56818 319.564 1.68466C319.496 1.80114 319.403 1.89489 319.287 1.96591C319.173 2.03409 319.045 2.06818 318.903 2.06818ZM322.208 2.06818C321.998 2.06818 321.817 1.9929 321.667 1.84233C321.516 1.69176 321.441 1.51136 321.441 1.30114C321.441 1.09091 321.516 0.910511 321.667 0.759943C321.817 0.609375 321.998 0.534091 322.208 0.534091C322.418 0.534091 322.599 0.609375 322.749 0.759943C322.9 0.910511 322.975 1.09091 322.975 1.30114C322.975 1.44034 322.94 1.56818 322.869 1.68466C322.8 1.80114 322.708 1.89489 322.592 1.96591C322.478 2.03409 322.35 2.06818 322.208 2.06818ZM325.513 2.06818C325.303 2.06818 325.122 1.9929 324.972 1.84233C324.821 1.69176 324.746 1.51136 324.746 1.30114C324.746 1.09091 324.821 0.910511 324.972 0.759943C325.122 0.609375 325.303 0.534091 325.513 0.534091C325.723 0.534091 325.903 0.609375 326.054 0.759943C326.205 0.910511 326.28 1.09091 326.28 1.30114C326.28 1.44034 326.244 1.56818 326.173 1.68466C326.105 1.80114 326.013 1.89489 325.896 1.96591C325.783 2.03409 325.655 2.06818 325.513 2.06818ZM328.817 2.06818C328.607 2.06818 328.427 1.9929 328.276 1.84233C328.126 1.69176 328.05 1.51136 328.05 1.30114C328.05 1.09091 328.126 0.910511 328.276 0.759943C328.427 0.609375 328.607 0.534091 328.817 0.534091C329.028 0.534091 329.208 0.609375 329.359 0.759943C329.509 0.910511 329.585 1.09091 329.585 1.30114C329.585 1.44034 329.549 1.56818 329.478 1.68466C329.41 1.80114 329.317 1.89489 329.201 1.96591C329.087 2.03409 328.96 2.06818 328.817 2.06818ZM332.122 2.06818C331.912 2.06818 331.732 1.9929 331.581 1.84233C331.43 1.69176 331.355 1.51136 331.355 1.30114C331.355 1.09091 331.43 0.910511 331.581 0.759943C331.732 0.609375 331.912 0.534091 332.122 0.534091C332.332 0.534091 332.513 0.609375 332.663 0.759943C332.814 0.910511 332.889 1.09091 332.889 1.30114C332.889 1.44034 332.854 1.56818 332.783 1.68466C332.714 1.80114 332.622 1.89489 332.506 1.96591C332.392 2.03409 332.264 2.06818 332.122 2.06818ZM335.427 2.06818C335.217 2.06818 335.036 1.9929 334.886 1.84233C334.735 1.69176 334.66 1.51136 334.66 1.30114C334.66 1.09091 334.735 0.910511 334.886 0.759943C335.036 0.609375 335.217 0.534091 335.427 0.534091C335.637 0.534091 335.817 0.609375 335.968 0.759943C336.119 0.910511 336.194 1.09091 336.194 1.30114C336.194 1.44034 336.158 1.56818 336.087 1.68466C336.019 1.80114 335.927 1.89489 335.81 1.96591C335.697 2.03409 335.569 2.06818 335.427 2.06818ZM338.732 2.06818C338.521 2.06818 338.341 1.9929 338.19 1.84233C338.04 1.69176 337.964 1.51136 337.964 1.30114C337.964 1.09091 338.04 0.910511 338.19 0.759943C338.341 0.609375 338.521 0.534091 338.732 0.534091C338.942 0.534091 339.122 0.609375 339.273 0.759943C339.423 0.910511 339.499 1.09091 339.499 1.30114C339.499 1.44034 339.463 1.56818 339.392 1.68466C339.324 1.80114 339.232 1.89489 339.115 1.96591C339.001 2.03409 338.874 2.06818 338.732 2.06818ZM342.036 2.06818C341.826 2.06818 341.646 1.9929 341.495 1.84233C341.344 1.69176 341.269 1.51136 341.269 1.30114C341.269 1.09091 341.344 0.910511 341.495 0.759943C341.646 0.609375 341.826 0.534091 342.036 0.534091C342.246 0.534091 342.427 0.609375 342.577 0.759943C342.728 0.910511 342.803 1.09091 342.803 1.30114C342.803 1.44034 342.768 1.56818 342.697 1.68466C342.629 1.80114 342.536 1.89489 342.42 1.96591C342.306 2.03409 342.178 2.06818 342.036 2.06818ZM345.341 2.06818C345.131 2.06818 344.95 1.9929 344.8 1.84233C344.649 1.69176 344.574 1.51136 344.574 1.30114C344.574 1.09091 344.649 0.910511 344.8 0.759943C344.95 0.609375 345.131 0.534091 345.341 0.534091C345.551 0.534091 345.732 0.609375 345.882 0.759943C346.033 0.910511 346.108 1.09091 346.108 1.30114C346.108 1.44034 346.072 1.56818 346.001 1.68466C345.933 1.80114 345.841 1.89489 345.724 1.96591C345.611 2.03409 345.483 2.06818 345.341 2.06818ZM348.646 2.06818C348.435 2.06818 348.255 1.9929 348.104 1.84233C347.954 1.69176 347.879 1.51136 347.879 1.30114C347.879 1.09091 347.954 0.910511 348.104 0.759943C348.255 0.609375 348.435 0.534091 348.646 0.534091C348.856 0.534091 349.036 0.609375 349.187 0.759943C349.337 0.910511 349.413 1.09091 349.413 1.30114C349.413 1.44034 349.377 1.56818 349.306 1.68466C349.238 1.80114 349.146 1.89489 349.029 1.96591C348.915 2.03409 348.788 2.06818 348.646 2.06818ZM351.95 2.06818C351.74 2.06818 351.56 1.9929 351.409 1.84233C351.259 1.69176 351.183 1.51136 351.183 1.30114C351.183 1.09091 351.259 0.910511 351.409 0.759943C351.56 0.609375 351.74 0.534091 351.95 0.534091C352.161 0.534091 352.341 0.609375 352.491 0.759943C352.642 0.910511 352.717 1.09091 352.717 1.30114C352.717 1.44034 352.682 1.56818 352.611 1.68466C352.543 1.80114 352.45 1.89489 352.334 1.96591C352.22 2.03409 352.092 2.06818 351.95 2.06818ZM355.255 2.06818C355.045 2.06818 354.864 1.9929 354.714 1.84233C354.563 1.69176 354.488 1.51136 354.488 1.30114C354.488 1.09091 354.563 0.910511 354.714 0.759943C354.864 0.609375 355.045 0.534091 355.255 0.534091C355.465 0.534091 355.646 0.609375 355.796 0.759943C355.947 0.910511 356.022 1.09091 356.022 1.30114C356.022 1.44034 355.987 1.56818 355.915 1.68466C355.847 1.80114 355.755 1.89489 355.638 1.96591C355.525 2.03409 355.397 2.06818 355.255 2.06818Z" fill="black"/>
</svg>
